<?xml version="1.0" encoding="UTF-8"?>
<!-- Generated by Pixelmator Pro 3.7.1 -->
<svg width="636" height="540" viewBox="0 0 636 540" xmlns="http://www.w3.org/2000/svg">
    <path id="Path" fill="#000000" stroke="#000000" stroke-width="20" d="M 86.374001 373.578003 C 55.541 420.911987 -2.426 518.177979 12.374 528.578003 C 30.874001 541.578003 259.373993 453.078003 296.873993 426.578003 C 358.540985 387.411987 455.373993 269.078003 357.373993 209.078003"/>
    <path id="path1" fill="#000000" stroke="#000000" stroke-width="20" d="M 85.874001 374.484009 C 135.707001 298.649994 262.174011 159.778015 359.373993 210.578003"/>
    <path id="path2" fill="none" stroke="#000000" stroke-width="20" stroke-linecap="round" stroke-linejoin="round" d="M 47.018002 419.578003 C 33.021999 412.053009 153.492004 165.247009 232.873993 114.578003 M 197.873993 123.078003 C 247.373993 68.411987 372.373993 -31.421997 502.873993 28.578003 M 504.873993 29.578003 C 483.540009 52.411987 444.473999 120.977997 458.873993 212.578003 C 476.873993 327.078003 458.373993 443.578003 315.373993 472.078003"/>
    <path id="path3" fill="none" stroke="#000000" stroke-width="20" stroke-linejoin="round" d="M 505.515015 31.774994 C 564.874023 36.078003 691.374023 146.578003 583.265015 245.860992"/>
    <path id="path4" fill="none" stroke="#000000" stroke-width="20" stroke-linejoin="round" d="M 470.873993 105.578003 C 517.20697 126.744995 607.073975 179.177979 585.874023 241.578003"/>
    <path id="path5" fill="none" stroke="#000000" stroke-width="20" stroke-linejoin="round" d="M 462.373993 187.578003 C 475.040009 193.411987 511.973999 198.477997 558.374023 172.078003"/>
    <path id="Polygon" fill="#000000" fill-rule="evenodd" stroke="#000000" stroke-width="3" stroke-linecap="round" stroke-linejoin="round" d="M 468.67453 109.56015 L 458.360657 194.319458 L 543.630676 150.451416 Z"/>
    <path id="Rectangle" fill="#000000" fill-rule="evenodd" stroke="#000000" stroke-width="3" stroke-linecap="round" stroke-linejoin="round" d="M 480 182 L 550 182 L 550 156 L 480 156 Z"/>
    <path id="path6" fill="#000000" stroke="none" d="M 427.873993 77.578003 C 427.873993 87.519135 419.815125 95.578003 409.873993 95.578003 C 399.932861 95.578003 391.873993 87.519135 391.873993 77.578003 C 391.873993 67.636871 399.932861 59.578003 409.873993 59.578003 C 419.815125 59.578003 427.873993 67.636871 427.873993 77.578003 Z"/>
</svg>
